<?xml version="1.0" encoding="UTF-8" standalone="no"?>
<!-- Created with Inkscape (http://www.inkscape.org/) -->

<svg
   version="1.1"
   id="svg2"
   width="1600"
   height="800"
   viewBox="0 0 1600 800"
   sodipodi:docname="Diabetes Compass_horizontal_full-colour.eps"
   xmlns:inkscape="http://www.inkscape.org/namespaces/inkscape"
   xmlns:sodipodi="http://sodipodi.sourceforge.net/DTD/sodipodi-0.dtd"
   xmlns="http://www.w3.org/2000/svg"
   xmlns:svg="http://www.w3.org/2000/svg">
  <defs
     id="defs6" />
  <sodipodi:namedview
     id="namedview4"
     pagecolor="#ffffff"
     bordercolor="#000000"
     borderopacity="0.25"
     inkscape:showpageshadow="2"
     inkscape:pageopacity="0.0"
     inkscape:pagecheckerboard="0"
     inkscape:deskcolor="#d1d1d1" />
  <g
     id="g8"
     inkscape:groupmode="layer"
     inkscape:label="ink_ext_XXXXXX"
     transform="matrix(1.3333333,0,0,-1.3333333,0,800)">
    <g
       id="g10"
       transform="scale(0.1)">
      <path
         d="m 4234.44,3000 c 0,-856.15 -694.06,-1550.22 -1550.22,-1550.22 -856.15,0 -1550.21,694.07 -1550.21,1550.22 0,856.16 694.06,1550.21 1550.21,1550.21 856.16,0 1550.22,-694.05 1550.22,-1550.21"
         style="fill:#ac2022;fill-opacity:1;fill-rule:nonzero;stroke:none"
         id="path12" />
      <path
         d="m 3748.09,3081.63 c -19.08,255.83 -129.95,497.08 -312.19,679.32 -182.24,182.24 -423.5,293.12 -679.33,312.19 l 3.62,48.53 c 267.45,-19.94 519.64,-135.82 710.12,-326.31 190.48,-190.48 306.36,-442.67 326.31,-710.12 z m -2146.29,0 -48.52,3.61 c 19.94,267.45 135.83,519.65 326.3,710.12 190.48,190.48 442.68,306.37 710.13,326.31 l 3.61,-48.53 c -255.83,-19.07 -497.09,-129.95 -679.33,-312.19 -182.24,-182.24 -293.11,-423.49 -312.19,-679.32 z m 987.91,-1203.3 c -267.45,19.95 -519.65,135.83 -710.13,326.31 -190.47,190.47 -306.36,442.67 -326.3,710.11 l 48.52,3.63 c 19.08,-255.83 129.95,-497.09 312.19,-679.33 182.25,-182.25 423.5,-293.11 679.33,-312.2 z m 170.48,0 -3.62,48.52 c 255.83,19.09 497.09,129.95 679.33,312.2 182.24,182.24 293.11,423.5 312.19,679.33 l 48.53,-3.63 c -19.95,-267.44 -135.83,-519.64 -326.31,-710.11 -190.48,-190.48 -442.67,-306.36 -710.12,-326.31"
         style="fill:#ffffff;fill-opacity:1;fill-rule:nonzero;stroke:none"
         id="path14" />
      <path
         d="m 3748.09,3081.63 c -19.08,255.83 -129.95,497.08 -312.19,679.32 -182.24,182.24 -423.5,293.12 -679.33,312.19 l 3.62,48.53 c 267.45,-19.94 519.64,-135.82 710.12,-326.31 190.48,-190.48 306.36,-442.67 326.31,-710.12 z m -2146.29,0 -48.52,3.61 c 19.94,267.45 135.83,519.65 326.3,710.12 190.48,190.48 442.68,306.37 710.13,326.31 l 3.61,-48.53 c -255.83,-19.07 -497.09,-129.95 -679.33,-312.19 -182.24,-182.24 -293.11,-423.49 -312.19,-679.32 z m 987.91,-1203.3 c -267.45,19.95 -519.65,135.83 -710.13,326.31 -190.47,190.47 -306.36,442.67 -326.3,710.11 l 48.52,3.63 c 19.08,-255.83 129.95,-497.09 312.19,-679.33 182.25,-182.25 423.5,-293.11 679.33,-312.2 z m 170.48,0 -3.62,48.52 c 255.83,19.09 497.09,129.95 679.33,312.2 182.24,182.24 293.11,423.5 312.19,679.33 l 48.53,-3.63 c -19.95,-267.44 -135.83,-519.64 -326.31,-710.11 -190.48,-190.48 -442.67,-306.36 -710.12,-326.31 z"
         style="fill:none;stroke:#ffffff;stroke-width:140;stroke-linecap:butt;stroke-linejoin:miter;stroke-miterlimit:10;stroke-dasharray:none;stroke-opacity:1"
         id="path16" />
      <path
         d="m 2674.95,3011.47 -143.68,143.67 143.68,1067.48 z"
         style="fill:#ffffff;fill-opacity:1;fill-rule:nonzero;stroke:none"
         id="path18" />
      <path
         d="M 2674.95,2988.53 2818.62,2844.86 2674.95,1777.37 Z"
         style="fill:#ffffff;fill-opacity:1;fill-rule:nonzero;stroke:none"
         id="path20" />
      <path
         d="M 2842.04,3167.1 2674.95,4408.61 2507.85,3167.1 1266.34,3000 l 1241.51,-167.09 167.1,-1241.52 167.09,1241.52 1241.51,167.1 -1241.51,167.09"
         style="fill:#ffffff;fill-opacity:1;fill-rule:nonzero;stroke:none"
         id="path22" />
      <path
         d="M 2842.04,3167.1 2674.95,4408.61 2507.85,3167.1 1266.34,3000 l 1241.51,-167.09 167.1,-1241.52 167.09,1241.52 1241.51,167.1 z"
         style="fill:none;stroke:#ac2022;stroke-width:40;stroke-linecap:butt;stroke-linejoin:miter;stroke-miterlimit:10;stroke-dasharray:none;stroke-opacity:1"
         id="path24" />
      <path
         d="M 2663.48,3000 2519.8,2856.34 1452.32,3000 Z"
         style="fill:#ffffff;fill-opacity:1;fill-rule:nonzero;stroke:none"
         id="path26" />
      <path
         d="m 3379.94,3555.96 12.12,46.78 -48.09,-4.73 c -91.59,-9.03 -899.28,-91.96 -1052.91,-223.4 -227.27,-194.48 -253.97,-537.59 -59.5,-764.87 194.46,-227.26 537.59,-253.95 764.86,-59.48 153.63,131.46 360.44,916.61 383.52,1005.7"
         style="fill:#ac2022;fill-opacity:1;fill-rule:nonzero;stroke:none"
         id="path28" />
      <path
         d="m 3379.94,3555.96 12.12,46.78 -48.09,-4.73 c -91.59,-9.03 -899.28,-91.96 -1052.91,-223.4 -227.27,-194.48 -253.97,-537.59 -59.5,-764.87 194.46,-227.26 537.59,-253.95 764.86,-59.48 153.63,131.46 360.44,916.61 383.52,1005.7 z"
         style="fill:none;stroke:#ffffff;stroke-width:20;stroke-linecap:butt;stroke-linejoin:miter;stroke-miterlimit:10;stroke-dasharray:none;stroke-opacity:1"
         id="path30" />
      <path
         d="m 5582.94,3524.45 c 0,41.6 -5.51,78.94 -16.52,111.97 -11.01,33.05 -26.93,61.02 -47.72,83.92 -20.81,22.9 -45.98,40.47 -75.53,52.7 -29.54,12.25 -62.84,18.36 -99.9,18.36 h -147.38 v -533.9 h 147.38 c 37.06,0 70.36,6.12 99.9,18.36 29.55,12.24 54.72,29.81 75.53,52.71 20.79,22.9 36.71,50.87 47.72,83.91 11.01,33.04 16.52,70.36 16.52,111.97 z m 144.75,0 c 0,-55.6 -9.27,-106.64 -27.8,-153.13 -18.53,-46.51 -44.57,-86.55 -78.14,-120.11 -33.56,-33.57 -73.95,-59.61 -121.14,-78.15 -47.21,-18.53 -99.66,-27.79 -157.34,-27.79 h -288.98 v 758.36 h 288.98 c 57.68,0 110.13,-9.36 157.34,-28.05 47.19,-18.71 87.58,-44.76 121.14,-78.14 33.57,-33.4 59.61,-73.34 78.14,-119.84 18.53,-46.52 27.8,-97.55 27.8,-153.15"
         style="fill:#141820;fill-opacity:1;fill-rule:nonzero;stroke:none"
         id="path32" />
      <path
         d="m 6046.04,3145.27 h -141.6 v 758.36 h 141.6 v -758.36"
         style="fill:#141820;fill-opacity:1;fill-rule:nonzero;stroke:none"
         id="path34" />
      <path
         d="m 6668.56,3431.62 -92.3,252.27 c -4.55,11.2 -9.27,24.47 -14.16,39.86 -4.91,15.38 -9.8,31.98 -14.69,49.82 -4.54,-17.84 -9.27,-34.53 -14.16,-50.09 -4.89,-15.55 -9.62,-29.11 -14.16,-40.64 l -91.78,-251.22 z m 249.12,-286.35 h -109.09 c -12.24,0 -22.2,3.06 -29.88,9.18 -7.7,6.1 -13.48,13.71 -17.32,22.81 l -56.64,154.72 H 6390.6 l -56.64,-154.72 c -2.8,-8.04 -8.21,-15.39 -16.25,-22.03 -8.06,-6.64 -18.02,-9.96 -29.9,-9.96 h -110.14 l 298.42,758.36 h 143.7 l 297.89,-758.36"
         style="fill:#141820;fill-opacity:1;fill-rule:nonzero;stroke:none"
         id="path36" />
      <path
         d="m 7332.52,3255.41 c 26.23,0 48.25,3.14 66.08,9.44 17.84,6.29 32.08,14.69 42.75,25.17 10.66,10.49 18.36,22.73 23.07,36.71 4.73,13.98 7.08,28.85 7.08,44.59 0,16.42 -2.61,31.2 -7.86,44.31 -5.25,13.11 -13.47,24.29 -24.65,33.56 -11.19,9.27 -25.62,16.33 -43.27,21.24 -17.66,4.89 -38.89,7.35 -63.72,7.35 h -142.13 v -222.37 z m -142.65,539.14 v -219.23 h 112.23 c 48.26,0 84.7,8.74 109.35,26.23 24.66,17.47 36.98,45.27 36.98,83.39 0,39.5 -11.19,67.66 -33.56,84.43 -22.38,16.79 -57.36,25.18 -104.89,25.18 z m 120.11,109.08 c 49.64,0 92.12,-4.71 127.44,-14.16 35.31,-9.43 64.25,-22.9 86.79,-40.38 22.55,-17.48 39.07,-38.63 49.57,-63.46 10.49,-24.82 15.72,-52.79 15.72,-83.9 0,-17.84 -2.61,-34.89 -7.86,-51.15 -5.25,-16.26 -13.38,-31.46 -24.39,-45.63 -11.01,-14.14 -24.99,-27 -41.96,-38.54 -16.96,-11.54 -37.15,-21.33 -60.56,-29.37 104.19,-23.43 156.29,-79.72 156.29,-168.88 0,-32.18 -6.13,-61.87 -18.37,-89.15 -12.24,-27.27 -30.08,-50.79 -53.49,-70.54 -23.43,-19.75 -52.27,-35.24 -86.53,-46.41 -34.28,-11.2 -73.44,-16.79 -117.48,-16.79 h -286.36 v 758.36 h 261.19"
         style="fill:#141820;fill-opacity:1;fill-rule:nonzero;stroke:none"
         id="path38" />
      <path
         d="m 7933.55,3791.4 v -210.3 h 265.38 v -108.56 h -265.38 v -214.52 h 336.7 v -112.75 h -478.3 v 758.36 h 478.3 V 3791.4 h -336.7"
         style="fill:#141820;fill-opacity:1;fill-rule:nonzero;stroke:none"
         id="path40" />
      <path
         d="m 8977.22,3787.73 h -228.66 v -642.46 h -141.09 v 642.46 h -228.66 v 115.9 h 598.41 v -115.9"
         style="fill:#141820;fill-opacity:1;fill-rule:nonzero;stroke:none"
         id="path42" />
      <path
         d="m 9270.91,3791.4 v -210.3 h 265.37 v -108.56 h -265.37 v -214.52 h 336.69 v -112.75 h -478.29 v 758.36 H 9607.6 V 3791.4 h -336.69"
         style="fill:#141820;fill-opacity:1;fill-rule:nonzero;stroke:none"
         id="path44" />
      <path
         d="m 10188.7,3765.71 c -4.2,-7.35 -8.6,-12.68 -13.4,-16.01 -4.7,-3.32 -10.5,-4.98 -17.5,-4.98 -7.4,0 -15.3,2.7 -23.9,8.13 -8.6,5.42 -18.8,11.45 -30.7,18.09 -11.9,6.66 -25.8,12.68 -41.7,18.1 -15.9,5.41 -34.7,8.13 -56.4,8.13 -19.54,0 -36.66,-2.36 -51.35,-7.08 -14.68,-4.71 -27.02,-11.27 -36.98,-19.67 -9.96,-8.38 -17.39,-18.44 -22.29,-30.15 -4.9,-11.72 -7.34,-24.58 -7.34,-38.54 0,-17.84 4.98,-32.71 14.94,-44.58 9.97,-11.9 23.17,-22.04 39.61,-30.43 16.43,-8.38 35.14,-15.91 56.11,-22.55 21,-6.64 42.5,-13.72 64.5,-21.24 22,-7.51 43.5,-16.26 64.5,-26.22 21,-9.96 39.7,-22.55 56.1,-37.77 16.5,-15.2 29.7,-33.83 39.6,-55.85 10,-22.03 15,-48.78 15,-80.24 0,-34.28 -5.9,-66.35 -17.6,-96.23 -11.7,-29.9 -28.8,-55.96 -51.4,-78.15 -22.5,-22.21 -50.1,-39.69 -82.6,-52.45 -32.5,-12.76 -69.7,-19.14 -111.7,-19.14 -24.12,0 -47.9,2.36 -71.32,7.08 -23.43,4.72 -45.89,11.45 -67.4,20.2 -21.5,8.73 -41.69,19.22 -60.58,31.45 -18.87,12.25 -35.66,25.88 -50.34,40.91 l 41.43,67.67 c 3.5,4.88 8.04,8.99 13.64,12.31 5.58,3.33 11.54,4.99 17.84,4.99 8.73,0 18.16,-3.59 28.31,-10.75 10.13,-7.17 22.2,-15.14 36.19,-23.87 13.98,-8.75 30.32,-16.7 49.03,-23.85 18.71,-7.17 41.18,-10.76 67.4,-10.76 40.2,0 71.3,9.52 93.4,28.58 22,19.05 33,46.41 33,82.08 0,19.93 -5,36.19 -15,48.78 -9.9,12.58 -23.1,23.15 -39.6,31.73 -16.4,8.56 -35.1,15.82 -56.06,21.76 -20.99,5.95 -42.32,12.41 -64,19.41 -21.68,6.98 -43,15.37 -63.98,25.16 -20.97,9.79 -39.68,22.55 -56.11,38.29 -16.44,15.74 -29.64,35.4 -39.6,59 -9.96,23.6 -14.95,52.71 -14.95,87.32 0,27.63 5.51,54.55 16.52,80.77 11.01,26.22 27.01,49.48 47.99,69.76 20.98,20.27 46.86,36.53 77.62,48.77 30.77,12.24 66.09,18.37 105.97,18.37 44.7,0 86,-7.01 123.7,-20.99 37.8,-13.98 70,-33.56 96.5,-58.74 l -35.1,-66.6"
         style="fill:#141820;fill-opacity:1;fill-rule:nonzero;stroke:none"
         id="path46" />
      <path
         d="m 5574.81,2275.19 c 7.68,0 14.51,-2.98 20.44,-8.91 l 55.6,-60.31 c -30.77,-38.12 -68.62,-67.31 -113.55,-87.59 -44.93,-20.29 -98.86,-30.41 -161.79,-30.41 -56.3,0 -106.9,9.6 -151.83,28.83 -44.93,19.23 -83.3,45.98 -115.13,80.25 -31.81,34.26 -56.19,75.16 -73.15,122.72 -16.96,47.54 -25.43,99.47 -25.43,155.76 0,57 9.09,109.17 27.27,156.57 18.17,47.35 43.79,88.17 76.82,122.45 33.05,34.27 72.46,60.93 118.27,79.98 45.8,19.05 96.51,28.59 152.09,28.59 55.25,0 104.28,-9.11 147.12,-27.27 42.82,-18.2 79.27,-41.97 109.35,-71.34 l -47.21,-65.56 c -2.79,-4.2 -6.38,-7.86 -10.74,-11 -4.38,-3.16 -10.41,-4.73 -18.1,-4.73 -5.25,0 -10.67,1.48 -16.26,4.45 -5.59,2.97 -11.71,6.65 -18.36,11.03 -6.64,4.36 -14.34,9.17 -23.07,14.41 -8.75,5.26 -18.89,10.06 -30.42,14.43 -11.54,4.36 -24.91,8.03 -40.12,11.02 -15.21,2.96 -32.78,4.46 -52.71,4.46 -33.92,0 -64.94,-6.04 -93.09,-18.1 -28.14,-12.07 -52.37,-29.55 -72.64,-52.44 -20.28,-22.91 -36.02,-50.89 -47.19,-83.92 -11.2,-33.04 -16.79,-70.72 -16.79,-113.03 0,-42.66 6.03,-80.58 18.1,-113.79 12.06,-33.24 28.39,-61.2 49.03,-83.93 20.63,-22.72 44.92,-40.11 72.9,-52.17 27.97,-12.07 58.04,-18.09 90.2,-18.09 19.23,0 36.63,1.03 52.19,3.13 15.56,2.1 29.9,5.42 43.01,9.97 13.11,4.54 25.52,10.4 37.24,17.57 11.7,7.16 23.33,16 34.87,26.48 3.48,3.15 7.16,5.69 11.01,7.61 3.85,1.92 7.87,2.88 12.07,2.88"
         style="fill:#141820;fill-opacity:1;fill-rule:nonzero;stroke:none"
         id="path48" />
      <path
         d="m 6363.07,2475.53 c 0,41.61 -5.59,78.94 -16.78,111.98 -11.2,33.04 -27.1,61.1 -47.73,84.18 -20.63,23.06 -45.71,40.72 -75.25,52.97 -29.55,12.23 -62.86,18.36 -99.91,18.36 -37.07,0 -70.37,-6.13 -99.91,-18.36 -29.55,-12.25 -54.73,-29.91 -75.52,-52.97 -20.81,-23.08 -36.81,-51.14 -47.99,-84.18 -11.2,-33.04 -16.79,-70.37 -16.79,-111.98 0,-41.61 5.59,-78.92 16.79,-111.97 11.18,-33.04 27.18,-61 47.99,-83.9 20.79,-22.9 45.97,-40.47 75.52,-52.72 29.54,-12.24 62.84,-18.36 99.91,-18.36 37.05,0 70.36,6.12 99.91,18.36 29.54,12.25 54.62,29.82 75.25,52.72 20.63,22.9 36.53,50.86 47.73,83.9 11.19,33.05 16.78,70.36 16.78,111.97 z m 144.22,0 c 0,-55.59 -9.16,-107.08 -27.52,-154.45 -18.36,-47.37 -44.32,-88.36 -77.89,-122.99 -33.56,-34.61 -73.95,-61.62 -121.14,-81.02 -47.21,-19.41 -99.66,-29.1 -157.34,-29.1 -57.35,0 -109.62,9.69 -156.81,29.1 -47.21,19.4 -87.68,46.41 -121.42,81.02 -33.74,34.63 -59.88,75.62 -78.4,122.99 -18.54,47.37 -27.8,98.86 -27.8,154.45 0,55.6 9.26,107.07 27.8,154.47 18.52,47.37 44.66,88.37 78.4,122.98 33.74,34.61 74.21,61.63 121.42,81.02 47.19,19.42 99.46,29.12 156.81,29.12 38.45,0 74.64,-4.47 108.55,-13.39 33.92,-8.9 65.04,-21.49 93.36,-37.75 28.32,-16.26 53.76,-36.02 76.31,-59.27 22.55,-23.26 41.7,-49.21 57.43,-77.88 15.74,-28.67 27.71,-59.79 35.93,-93.35 8.2,-33.56 12.31,-68.88 12.31,-105.95"
         style="fill:#141820;fill-opacity:1;fill-rule:nonzero;stroke:none"
         id="path50" />
      <path
         d="m 7506.39,2854.71 v -758.36 h -124.3 v 489.85 c 0,19.58 1.05,40.72 3.15,63.46 l -229.19,-430.58 c -10.84,-20.64 -27.45,-30.95 -49.83,-30.95 h -19.92 c -22.38,0 -38.99,10.31 -49.82,30.95 l -231.82,432.16 c 1.05,-11.55 1.92,-22.91 2.63,-34.1 0.7,-11.2 1.04,-21.5 1.04,-30.94 v -489.85 h -124.29 v 758.36 h 106.46 c 6.3,0 11.71,-0.17 16.26,-0.51 4.54,-0.35 8.66,-1.23 12.33,-2.63 3.66,-1.4 6.99,-3.66 9.96,-6.82 2.97,-3.14 5.85,-7.34 8.66,-12.58 l 227.09,-421.14 c 5.94,-11.19 11.45,-22.73 16.52,-34.61 5.06,-11.89 10.04,-24.14 14.94,-36.73 4.89,12.93 9.96,25.44 15.21,37.51 5.25,12.07 10.83,23.69 16.79,34.88 l 223.94,420.09 c 2.8,5.24 5.76,9.44 8.91,12.58 3.15,3.16 6.56,5.42 10.24,6.82 3.66,1.4 7.77,2.28 12.31,2.63 4.55,0.34 9.96,0.51 16.27,0.51 h 106.46"
         style="fill:#141820;fill-opacity:1;fill-rule:nonzero;stroke:none"
         id="path52" />
      <path
         d="m 7974.2,2473.44 c 25.87,0 48.43,3.23 67.66,9.7 19.22,6.47 35.21,15.73 47.98,27.8 12.76,12.07 22.29,26.74 28.59,44.06 6.29,17.29 9.44,36.62 9.44,57.95 0,20.27 -3.15,38.63 -9.44,55.06 -6.3,16.44 -15.73,30.43 -28.32,41.96 -12.59,11.53 -28.5,20.37 -47.72,26.49 -19.25,6.11 -41.97,9.16 -68.19,9.16 h -105.41 v -272.18 z m 0,381.27 c 50.7,0 94.57,-5.93 131.64,-17.82 37.06,-11.89 67.66,-28.49 91.78,-49.83 24.13,-21.33 42.04,-46.85 53.76,-76.56 11.71,-29.72 17.56,-62.25 17.56,-97.55 0,-36.72 -6.12,-70.37 -18.34,-100.96 -12.25,-30.61 -30.61,-56.9 -55.08,-78.94 -24.48,-22.02 -55.16,-39.16 -92.04,-51.39 -36.89,-12.25 -79.98,-18.35 -129.28,-18.35 h -105.41 v -266.96 h -141.08 v 758.36 h 246.49"
         style="fill:#141820;fill-opacity:1;fill-rule:nonzero;stroke:none"
         id="path54" />
      <path
         d="m 8777.15,2382.7 -92.3,252.28 c -4.55,11.18 -9.27,24.46 -14.17,39.85 -4.9,15.38 -9.79,31.98 -14.68,49.83 -4.54,-17.85 -9.27,-34.54 -14.16,-50.09 -4.89,-15.56 -9.62,-29.11 -14.16,-40.65 L 8535.9,2382.7 Z m 249.12,-286.35 h -109.09 c -12.24,0 -22.2,3.06 -29.89,9.18 -7.69,6.11 -13.47,13.72 -17.31,22.82 l -56.65,154.71 h -314.15 l -56.63,-154.71 c -2.8,-8.05 -8.21,-15.39 -16.26,-22.03 -8.05,-6.65 -18.01,-9.97 -29.89,-9.97 h -110.15 l 298.43,758.36 h 143.7 l 297.89,-758.36"
         style="fill:#141820;fill-opacity:1;fill-rule:nonzero;stroke:none"
         id="path56" />
      <path
         d="m 9561.2,2716.79 c -4.2,-7.35 -8.66,-12.67 -13.38,-16 -4.71,-3.32 -10.57,-4.98 -17.57,-4.98 -7.33,0 -15.3,2.69 -23.86,8.12 -8.57,5.42 -18.8,11.46 -30.68,18.1 -11.88,6.65 -25.79,12.67 -41.69,18.09 -15.92,5.41 -34.7,8.13 -56.38,8.13 -19.59,0 -36.71,-2.35 -51.39,-7.08 -14.69,-4.71 -27.02,-11.27 -36.98,-19.67 -9.96,-8.39 -17.4,-18.44 -22.29,-30.15 -4.91,-11.71 -7.34,-24.58 -7.34,-38.54 0,-17.83 4.98,-32.71 14.94,-44.58 9.96,-11.89 23.16,-22.03 39.6,-30.43 16.43,-8.39 35.14,-15.91 56.11,-22.55 20.99,-6.64 42.49,-13.72 64.51,-21.24 22.04,-7.51 43.53,-16.26 64.51,-26.22 20.98,-9.96 39.67,-22.55 56.12,-37.76 16.43,-15.21 29.62,-33.83 39.6,-55.85 9.96,-22.03 14.94,-48.78 14.94,-80.25 0,-34.27 -5.86,-66.34 -17.56,-96.23 -11.72,-29.9 -28.85,-55.95 -51.4,-78.14 -22.55,-22.22 -50.09,-39.7 -82.6,-52.45 -32.52,-12.77 -69.76,-19.14 -111.72,-19.14 -24.12,0 -47.9,2.35 -71.31,7.08 -23.44,4.71 -45.9,11.44 -67.41,20.19 -21.5,8.73 -41.69,19.22 -60.57,31.46 -18.87,12.24 -35.66,25.88 -50.35,40.9 l 41.44,67.67 c 3.49,4.88 8.04,9 13.63,12.32 5.59,3.33 11.54,4.99 17.84,4.99 8.73,0 18.17,-3.6 28.31,-10.76 10.14,-7.16 22.2,-15.13 36.2,-23.86 13.98,-8.75 30.32,-16.7 49.02,-23.86 18.71,-7.17 41.18,-10.75 67.4,-10.75 40.21,0 71.32,9.52 93.36,28.57 22.02,19.05 33.04,46.42 33.04,82.08 0,19.93 -4.99,36.19 -14.95,48.78 -9.96,12.59 -23.16,23.16 -39.6,31.73 -16.44,8.56 -35.14,15.81 -56.11,21.77 -20.99,5.94 -42.32,12.41 -63.99,19.4 -21.68,6.98 -43,15.37 -63.99,25.17 -20.97,9.78 -39.68,22.55 -56.11,38.29 -16.44,15.73 -29.63,35.4 -39.6,58.99 -9.96,23.61 -14.94,52.72 -14.94,87.33 0,27.62 5.51,54.55 16.52,80.77 11.01,26.22 27,49.47 47.98,69.75 20.98,20.28 46.86,36.54 77.63,48.77 30.76,12.23 66.08,18.37 105.93,18.37 44.76,0 86.01,-7.01 123.77,-20.98 37.77,-13.99 69.94,-33.57 96.51,-58.74 l -35.14,-66.61"
         style="fill:#141820;fill-opacity:1;fill-rule:nonzero;stroke:none"
         id="path58" />
      <path
         d="m 10189,2716.79 c -4.2,-7.35 -8.7,-12.67 -13.4,-16 -4.7,-3.32 -10.6,-4.98 -17.6,-4.98 -7.3,0 -15.3,2.69 -23.8,8.12 -8.6,5.42 -18.8,11.46 -30.7,18.1 -11.9,6.65 -25.8,12.67 -41.7,18.09 -15.9,5.41 -34.7,8.13 -56.4,8.13 -19.58,0 -36.7,-2.35 -51.39,-7.08 -14.69,-4.71 -27.02,-11.27 -36.98,-19.67 -9.96,-8.39 -17.4,-18.44 -22.29,-30.15 -4.91,-11.71 -7.34,-24.58 -7.34,-38.54 0,-17.83 4.98,-32.71 14.94,-44.58 9.96,-11.89 23.17,-22.03 39.61,-30.43 16.42,-8.39 35.13,-15.91 56.1,-22.55 20.95,-6.64 42.45,-13.72 64.55,-21.24 22,-7.51 43.5,-16.26 64.5,-26.22 21,-9.96 39.6,-22.55 56.1,-37.76 16.4,-15.21 29.6,-33.83 39.6,-55.85 10,-22.03 14.9,-48.78 14.9,-80.25 0,-34.27 -5.8,-66.34 -17.5,-96.23 -11.7,-29.9 -28.9,-55.95 -51.4,-78.14 -22.6,-22.22 -50.1,-39.7 -82.6,-52.45 -32.6,-12.77 -69.8,-19.14 -111.74,-19.14 -24.13,0 -47.9,2.35 -71.33,7.08 -23.42,4.71 -45.88,11.44 -67.39,20.19 -21.5,8.73 -41.69,19.22 -60.58,31.46 -18.88,12.24 -35.66,25.88 -50.35,40.9 l 41.44,67.67 c 3.49,4.88 8.04,9 13.63,12.32 5.59,3.33 11.54,4.99 17.84,4.99 8.74,0 18.17,-3.6 28.31,-10.76 10.14,-7.16 22.2,-15.13 36.2,-23.86 13.98,-8.75 30.32,-16.7 49.02,-23.86 18.71,-7.17 41.18,-10.75 67.41,-10.75 40.24,0 71.34,9.52 93.34,28.57 22,19.05 33,46.42 33,82.08 0,19.93 -4.9,36.19 -14.9,48.78 -10,12.59 -23.2,23.16 -39.6,31.73 -16.4,8.56 -35.1,15.81 -56.11,21.77 -20.98,5.94 -42.31,12.41 -63.99,19.4 -21.68,6.98 -43,15.37 -63.98,25.17 -20.98,9.78 -39.69,22.55 -56.11,38.29 -16.44,15.73 -29.65,35.4 -39.61,58.99 -9.96,23.61 -14.94,52.72 -14.94,87.33 0,27.62 5.5,54.55 16.52,80.77 11.01,26.22 27,49.47 47.99,69.75 20.97,20.28 46.85,36.54 77.62,48.77 30.77,12.23 66.08,18.37 105.91,18.37 44.8,0 86,-7.01 123.8,-20.98 37.8,-13.99 69.9,-33.57 96.5,-58.74 l -35.1,-66.61"
         style="fill:#141820;fill-opacity:1;fill-rule:nonzero;stroke:none"
         id="path60" />
    </g>
  </g>
</svg>
